:SAMPLES-PER-SECOND 30
:FRAME-RANGE 1-1770
:FULLY-SPECIFIED
:DEGREES
166
root  -30.968 38.8651 44.7971 -0.88311 55.1144 -0.234076
RightUpLeg  -10.7306 -11.139 -14.7031
RightLeg  1.50214 -3.74521 -1.9203
RightFoot  0.185119 -1.15534 11.4244
RightToes  6.35937e-011 1.2921e-014 -6.02303e-014
Spine  6.28353 2.41065 2.0906
Spine1  -1.40443 3.84662 -7.61546
HEad  -8.36312 46.8986 -14.5979
LeftShoulder1  1.51821 -0.266588 -34.2011
LeftArm  32.7093 -20.1327 -42.2474
LeftForeArm  -0.172456 -17.0978 -10.3961
LeftHand  0.277006 -3.76334 -3.25728
RightShoulder  7.38754 10.5412 46.0277
RightArm  6.4766 -3.6518 11.2604
RightForeArm  19.5541 -5.39998 17.3134
RightHand  0.235516 4.34011 2.52575
LeftUpLeg  3.3197 2.1669 -3.9526
LeftLeg  14.8131 -7.19922 -0.998432
LeftFoot  -16.2463 0.387695 6.76133
LeftToes  3.18074e-010 1.39432e-010 -7.71186e-011
167
root  -30.7037 38.6921 46.043 -0.531915 57.4245 0.377334
RightUpLeg  -9.25775 -11.655 -15.0105
RightLeg  -3.657 -2.79258 -1.08484
RightFoot  -0.609906 -1.26045 13.3197
RightToes  6.35937e-011 1.2921e-014 -6.02303e-014
Spine  6.3094 2.39095 2.00072
Spine1  -1.10038 3.85836 -7.56774
HEad  -8.73151 46.1154 -15.2505
LeftShoulder1  1.53561 -0.316762 -34.1294
LeftArm  32.8784 -20.4854 -42.0026
LeftForeArm  -0.950523 -18.3487 -9.15561
LeftHand  0.240664 -3.72457 -2.81086
RightShoulder  7.24142 10.3185 45.8395
RightArm  4.73501 -3.90422 10.7188
RightForeArm  19.963 -5.61506 17.1759
RightHand  0.219536 4.06217 2.42312
LeftUpLeg  4.54571 1.34447 -2.61751
LeftLeg  15.8176 -9.0497 -1.44994
LeftFoot  -18.1947 0.448218 5.6534
LeftToes  3.18074e-010 1.39432e-010 -7.71186e-011
168
root  -30.4295 38.5682 47.2801 -1.28923 58.7911 -0.404891
RightUpLeg  -10.0606 -10.8045 -13.615
RightLeg  -0.661869 -0.410791 -1.39755
RightFoot  1.79428 -1.60636 13.9951
RightToes  6.35937e-011 1.2921e-014 -6.02303e-014
Spine  6.5489 2.51481 3.51859
Spine1  -0.891104 4.10156 -7.53389
HEad  -8.06566 45.8824 -15.1938
LeftShoulder1  1.50022 -0.240315 -34.0056
LeftArm  32.0111 -19.9557 -40.888
LeftForeArm  -1.60316 -19.267 -8.21257
LeftHand  0.2272 -3.53392 -2.70969
RightShoulder  7.37386 10.5534 45.8982
RightArm  3.13515 -3.73117 10.5109
RightForeArm  21.3206 -5.82188 16.9847
RightHand  0.206373 3.85369 2.32728
LeftUpLeg  5.90211 -1.94406 -1.19942
LeftLeg  16.1971 -7.48686 -1.05007
LeftFoot  -19.7996 0.405738 3.87643
LeftToes  3.18074e-010 1.39432e-010 -7.71186e-011
169
root  -30.1429 38.251 48.5707 -2.72048 59.7406 -1.78575
RightUpLeg  -11.8479 -9.7703 -12.0847
RightLeg  5.38334 0.80968 -1.2867
RightFoot  6.97237 -2.45425 15.4402
RightToes  6.35937e-011 1.2921e-014 -6.02303e-014
Spine  7.0177 2.46002 5.39566
Spine1  -1.04842 4.2854 -8.07706
HEad  -7.29952 46.4137 -15.2502
LeftShoulder1  1.43793 -0.0752642 -34.1091
LeftArm  30.8884 -18.3976 -38.6727
LeftForeArm  -2.96296 -20.348 -7.18846
LeftHand  0.228485 -3.4732 -2.7496
RightShoulder  7.68482 11.0856 46.0913
RightArm  5.24596 -3.24899 10.7176
RightForeArm  19.5106 -5.28572 17.3743
RightHand  0.167931 3.58002 1.92088
LeftUpLeg  6.45744 -7.3728 0.128131
LeftLeg  18.9064 -3.50912 -0.949316
LeftFoot  -22.5035 0.327846 1.97145
LeftToes  3.18074e-010 1.39432e-010 -7.71186e-011
170
root  -29.8074 37.9903 49.7496 -5.95815 60.873 -4.69905
RightUpLeg  -13.3576 -10.01 -10.5779
RightLeg  13.8163 0.253549 -0.189076
RightFoot  2.22726 -1.85163 15.6047
RightToes  6.35937e-011 1.2921e-014 -6.02303e-014
Spine  7.96347 2.02091 8.28341
Spine1  -0.876057 4.1865 -8.14222
HEad  -7.09432 47.2849 -16.1799
LeftShoulder1  1.3969 0.0743366 -34.6544
LeftArm  29.2023 -16.441 -36.1047
LeftForeArm  -4.05455 -20.6341 -6.9658
LeftHand  0.212608 -3.22478 -2.63371
RightShoulder  7.95764 11.6423 45.9655
RightArm  6.07845 -2.18742 11.3464
RightForeArm  18.8725 -5.08714 17.5039
RightHand  0.181866 3.65331 2.07886
LeftUpLeg  6.31073 -10.2016 2.21903
LeftLeg  23.7266 -1.96006 -0.607614
LeftFoot  -24.1328 0.00486604 -1.2494
LeftToes  3.18074e-010 1.39432e-010 -7.71186e-011
171
root  -29.4703 37.7703 50.8742 -9.58871 62.9022 -8.30541
RightUpLeg  -13.5898 -13.2268 -8.48042
RightLeg  19.4458 1.50168 0.454055
RightFoot  -2.14644 -1.25041 15.2826
RightToes  6.35937e-011 1.2921e-014 -6.02303e-014
Spine  8.16064 1.40008 10.1811
Spine1  -0.114545 3.69783 -6.64689
HEad  -7.13013 48.0965 -16.9664
LeftShoulder1  1.38137 0.133165 -34.8989
LeftArm  25.755 -14.5104 -34.4798
LeftForeArm  -2.94893 -18.8718 -8.58192
LeftHand  0.162087 -2.738 -2.10799
RightShoulder  8.30377 12.2035 46.2557
RightArm  8.42603 -0.966444 11.7316
RightForeArm  16.2682 -4.57305 17.8588
RightHand  0.175594 3.60791 2.01175
LeftUpLeg  3.62254 -11.2329 5.31202
LeftLeg  31.7509 -1.67743 -0.770181
LeftFoot  -23.4824 -0.591924 -6.88384
LeftToes  3.18074e-010 1.39432e-010 -7.71186e-011
172
root  -29.1535 37.6755 51.9207 -12.5098 65.2911 -11.7886
RightUpLeg  -13.4353 -15.0761 -6.56001
RightLeg  22.5817 0.816704 0.238916
RightFoot  -5.29617 -0.795091 14.302
RightToes  6.35937e-011 1.2921e-014 -6.02303e-014
Spine  8.1567 1.05999 11.4795
Spine1  -0.0717769 3.35866 -4.84744
HEad  -5.97623 48.2216 -16.311
LeftShoulder1  1.37722 0.117119 -34.5883
LeftArm  18.7199 -12.9264 -33.9508
LeftForeArm  2.39974 -14.3392 -12.282
LeftHand  0.14051 -2.12595 -1.99898
RightShoulder  8.62783 12.5704 46.9795
RightArm  4.56921 0.490752 11.9286
RightForeArm  20.5659 -5.46383 17.2276
RightHand  0.146967 4.0071 1.5454
LeftUpLeg  -1.41597 -10.8625 8.30527
LeftLeg  40.6719 -0.234073 0.163818
LeftFoot  -18.1899 -0.66051 -12.8105
LeftToes  3.18074e-010 1.39432e-010 -7.71186e-011
173
root  -28.8093 37.6557 52.8574 -14.6859 67.0711 -14.1923
RightUpLeg  -12.7421 -15.8658 -5.23989
RightLeg  24.4813 -0.186429 -0.232866
RightFoot  -7.7199 -0.48303 13.5518
RightToes  6.35937e-011 1.2921e-014 -6.02303e-014
Spine  8.67062 1.06285 12.9108
Spine1  -0.486355 3.58912 -4.48334
HEad  -4.5699 48.1811 -15.4826
LeftShoulder1  1.35567 0.137978 -34.2058
LeftArm  12.4938 -11.9075 -33.7315
LeftForeArm  6.70831 -8.43798 -15.7308
LeftHand  0.147795 -1.71908 -2.27062
RightShoulder  9.08516 13.2522 47.461
RightArm  4.85651 1.42351 12.5922
RightForeArm  19.9586 -5.50357 17.2375
RightHand  0.119815 4.02333 1.20699
LeftUpLeg  -6.86033 -8.21366 10.2426
LeftLeg  48.9144 1.61815 2.41797
LeftFoot  -8.52488 0.282396 -9.39794
LeftToes  3.18074e-010 1.39432e-010 -7.71186e-011
174
root  -28.3894 37.7225 53.6911 -15.8541 68.8412 -15.2682
RightUpLeg  -11.1988 -16.653 -4.87306
RightLeg  25.1068 -1.09803 -0.500741
RightFoot  -9.64486 -0.261202 13.1421
RightToes  6.35937e-011 1.2921e-014 -6.02303e-014
Spine  8.90511 1.20271 14.0218
Spine1  -0.539719 3.96908 -4.63825
HEad  -3.53801 48.3112 -15.1463
LeftShoulder1  1.37818 0.0974449 -34.3852
LeftArm  11.2668 -10.7773 -33.2564
LeftForeArm  6.36376 -4.03882 -17.6568
LeftHand  0.198706 -1.27371 -3.35792
RightShoulder  9.7228 14.3673 47.6152
RightArm  5.25991 2.06422 13.5356
RightForeArm  18.461 -5.56453 17.2812
RightHand  0.103798 3.91298 1.02915
LeftUpLeg  -11.0082 -5.44098 10.5398
LeftLeg  53.6245 3.30211 5.27547
LeftFoot  -3.3479 0.34291 -4.61953
LeftToes  3.18074e-010 1.39432e-010 -7.71186e-011
175
root  -27.8837 37.9895 54.4995 -14.6008 70.782 -13.9533
RightUpLeg  -8.72897 -17.2314 -5.65413
RightLeg  23.7035 -2.2085 -0.361853
RightFoot  -10.5809 -0.157696 12.8356
RightToes  6.35937e-011 1.2921e-014 -6.02303e-014
Spine  8.83405 1.52729 14.0481
Spine1  -0.754733 4.36175 -5.57169
HEad  -2.98366 48.7604 -15.0505
LeftShoulder1  1.38512 0.103383 -34.6554
LeftArm  15.4725 -9.1468 -32.8445
LeftForeArm  1.80532 -1.97623 -18.8691
LeftHand  0.225282 -0.659452 -4.28168
RightShoulder  10.3504 15.397 47.9216
RightArm  6.64043 3.00857 14.4693
RightForeArm  17.1032 -5.41059 17.4327
RightHand  0.1092 3.95164 1.08934
LeftUpLeg  -14.481 -1.50625 9.20496
LeftLeg  55.235 2.89996 4.97683
LeftFoot  -4.72553 0.319514 -5.0363
LeftToes  3.18074e-010 1.39432e-010 -7.71186e-011
